<svg width="51" height="50" viewBox="0 0 51 50" fill="none" xmlns="http://www.w3.org/2000/svg">
<path opacity="0.1" d="M46.1221 23.4476C46.1221 34.8677 36.8644 44.1255 25.4444 44.1255C23.0396 44.1255 18.584 42.9602 18.584 42.9602C18.584 42.9602 16.6904 45.6267 13.8385 47.4752C11.0697 49.2697 6.63469 49.9998 6.63469 49.9998C6.63469 49.9998 8.80374 47.4342 10.2735 44.4476C11.4389 42.0792 11.627 38.8314 11.627 38.8314C11.627 38.8314 4.7666 33.3679 4.7666 23.4476C4.7666 13.5274 14.0244 3.28516 25.4444 3.28516C36.8644 3.28516 46.1221 12.0276 46.1221 23.4476Z" fill="#FB6C4E"/>
<path d="M43.546 20.2268C43.546 31.6468 34.2882 40.9046 22.8682 40.9046C20.4634 40.9046 17.1029 40.0028 17.1029 40.0028C17.1029 40.0028 14.6229 43.013 11.6488 44.7052C8.53548 46.4767 4.05851 46.779 4.05851 46.779C4.05851 46.779 6.22757 44.2133 7.69729 41.2267C8.86274 38.8584 9.05081 35.6105 9.05081 35.6105C9.05081 35.6105 2.19043 30.147 2.19043 20.2268C2.19043 10.3066 11.4482 0.06427 22.8682 0.06427C34.2882 0.06427 43.546 8.80671 43.546 20.2268Z" fill="#DF4A40"/>
<path d="M43.546 20.2268C43.546 31.6468 34.2882 40.9046 22.8682 40.9046C20.4634 40.9046 16.0078 39.7393 16.0078 39.7393C16.0078 39.7393 14.1143 42.4058 11.2623 44.2543C8.49355 46.0488 4.05851 46.779 4.05851 46.779C4.05851 46.779 6.22757 44.2133 7.69729 41.2267C8.86274 38.8584 9.05081 35.6105 9.05081 35.6105C9.05081 35.6105 2.19043 30.147 2.19043 20.2268C2.19043 10.3066 11.4482 0.06427 22.8682 0.06427C34.2882 0.06427 43.546 8.80671 43.546 20.2268Z" fill="url(#paint0_linear_2098_31435)"/>
<mask id="mask0_2098_31435" style="mask-type:alpha" maskUnits="userSpaceOnUse" x="2" y="0" width="42" height="47">
<path d="M43.546 20.2268C43.546 31.6468 34.2882 40.9046 22.8682 40.9046C20.4634 40.9046 16.0078 39.7393 16.0078 39.7393C16.0078 39.7393 14.1143 42.4058 11.2623 44.2543C8.49355 46.0488 4.05851 46.779 4.05851 46.779C4.05851 46.779 6.22757 44.2133 7.69729 41.2267C8.86274 38.8584 9.05081 35.6105 9.05081 35.6105C9.05081 35.6105 2.19043 30.147 2.19043 20.2268C2.19043 10.3066 11.4482 0.06427 22.8682 0.06427C34.2882 0.06427 43.546 8.80671 43.546 20.2268Z" fill="#FC3A3A"/>
</mask>
<g mask="url(#mask0_2098_31435)">
<ellipse cx="22.8575" cy="20.714" rx="13.5714" ry="13.5714" fill="#F4F4F4"/>
</g>
<path d="M28.1504 15.3311L17.7148 25.7666M17.7148 15.3311L28.1504 25.7666" stroke="#FB3B3A" stroke-width="3" stroke-linecap="round" stroke-linejoin="round"/>
<g filter="url(#filter0_d_2098_31435)">
<path d="M10.5713 28.7133L7.57129 31.7133M7.57129 28.7133L10.5713 31.7133" stroke="#FEF4E8" stroke-linecap="round" stroke-linejoin="round" shape-rendering="crispEdges"/>
</g>
<path d="M40.6145 47.0245L39.9703 46.3804L39.3262 47.0245L39.9703 47.6687L40.6145 47.0245Z" fill="#FC3A3A"/>
<path d="M49.6011 2.15797L47.4431 0L45.2852 2.15797L47.4431 4.31593L49.6011 2.15797Z" fill="#FC3A3A"/>
<path d="M48.6666 9.21135L47.4427 7.98743L46.2188 9.21135L47.4427 10.4353L48.6666 9.21135Z" fill="#FC3A3A"/>
<path d="M42.6438 5.34632L41.9996 4.70215L41.3555 5.34632L41.9996 5.99049L42.6438 5.34632Z" fill="#FC3A3A"/>
<path d="M6.15143 1.77121L5.34623 0.966003L4.54102 1.77121L5.34623 2.57643L6.15143 1.77121Z" fill="#FC3A3A"/>
<path d="M1.48158 12.078L0.7408 11.3372L0 12.078L0.7408 12.8187L1.48158 12.078Z" fill="#FC3A3A"/>
<path d="M49.4717 34.1098L47.7647 32.4027L46.0576 34.1098L47.7647 35.8168L49.4717 34.1098Z" fill="#FC3A3A"/>
<path d="M50.9209 26.7991L50.019 25.8972L49.1172 26.7991L50.019 27.7009L50.9209 26.7991Z" fill="#FC3A3A"/>
<defs>
<filter id="filter0_d_2098_31435" x="7.07129" y="28.2133" width="13" height="13" filterUnits="userSpaceOnUse" color-interpolation-filters="sRGB">
<feFlood flood-opacity="0" result="BackgroundImageFix"/>
<feColorMatrix in="SourceAlpha" type="matrix" values="0 0 0 0 0 0 0 0 0 0 0 0 0 0 0 0 0 0 127 0" result="hardAlpha"/>
<feOffset dx="5" dy="5"/>
<feGaussianBlur stdDeviation="2"/>
<feComposite in2="hardAlpha" operator="out"/>
<feColorMatrix type="matrix" values="0 0 0 0 0.968627 0 0 0 0 0.345098 0 0 0 0 0.258824 0 0 0 1 0"/>
<feBlend mode="normal" in2="BackgroundImageFix" result="effect1_dropShadow_2098_31435"/>
<feBlend mode="normal" in="SourceGraphic" in2="effect1_dropShadow_2098_31435" result="shape"/>
</filter>
<linearGradient id="paint0_linear_2098_31435" x1="33.5716" y1="2.85724" x2="7.50011" y2="43.5714" gradientUnits="userSpaceOnUse">
<stop stop-color="#FF8266"/>
<stop offset="1" stop-color="#FB3B3A"/>
</linearGradient>
</defs>
</svg>
