<svg width="51" height="50" viewBox="0 0 51 50" fill="none" xmlns="http://www.w3.org/2000/svg">
<path opacity="0.1" d="M46.1233 23.4482C46.1233 34.8682 36.8655 44.126 25.4454 44.126C23.0407 44.126 18.585 42.9607 18.585 42.9607C18.585 42.9607 16.6914 45.6272 13.8395 47.4757C11.0707 49.2702 6.63567 50.0003 6.63567 50.0003C6.63567 50.0003 8.80474 47.4347 10.2745 44.4481C11.4399 42.0798 11.628 38.8319 11.628 38.8319C11.628 38.8319 4.76758 33.3684 4.76758 23.4482C4.76758 13.5281 14.0254 3.28583 25.4454 3.28583C36.8655 3.28583 46.1233 12.0282 46.1233 23.4482Z" fill="#63DAA2"/>
<path d="M43.5461 20.2277C43.5461 31.6477 34.2883 40.9055 22.8683 40.9055C20.4635 40.9055 17.103 40.0036 17.103 40.0036C17.103 40.0036 14.6229 43.0139 11.6489 44.7061C8.5355 46.4775 4.05852 46.7798 4.05852 46.7798C4.05852 46.7798 6.22759 44.2142 7.69731 41.2276C8.86277 38.8592 9.05084 35.6114 9.05084 35.6114C9.05084 35.6114 2.19043 30.1479 2.19043 20.2277C2.19043 10.3076 11.4482 0.0653076 22.8683 0.0653076C34.2883 0.0653076 43.5461 8.80772 43.5461 20.2277Z" fill="#3BB87D"/>
<path d="M43.5461 20.2277C43.5461 31.6477 34.2883 40.9055 22.8683 40.9055C20.4635 40.9055 16.0079 39.7402 16.0079 39.7402C16.0079 39.7402 14.1143 42.4067 11.2624 44.2551C8.49358 46.0497 4.05852 46.7798 4.05852 46.7798C4.05852 46.7798 6.22759 44.2142 7.69731 41.2276C8.86277 38.8592 9.05084 35.6114 9.05084 35.6114C9.05084 35.6114 2.19043 30.1479 2.19043 20.2277C2.19043 10.3076 11.4482 0.0653076 22.8683 0.0653076C34.2883 0.0653076 43.5461 8.80772 43.5461 20.2277Z" fill="url(#paint0_linear_2098_32875)"/>
<mask id="mask0_2098_32875" style="mask-type:alpha" maskUnits="userSpaceOnUse" x="2" y="0" width="42" height="47">
<path d="M43.5461 20.2281C43.5461 31.6481 34.2883 40.9058 22.8683 40.9058C20.4635 40.9058 16.0079 39.7406 16.0079 39.7406C16.0079 39.7406 14.1143 42.4071 11.2624 44.2555C8.49358 46.0501 4.05852 46.7802 4.05852 46.7802C4.05852 46.7802 6.22759 44.2145 7.69731 41.2279C8.86277 38.8596 9.05084 35.6118 9.05084 35.6118C9.05084 35.6118 2.19043 30.1483 2.19043 20.2281C2.19043 10.3079 11.4482 0.0656738 22.8683 0.0656738C34.2883 0.0656738 43.5461 8.80808 43.5461 20.2281Z" fill="#FB6C4E"/>
</mask>
<g mask="url(#mask0_2098_32875)">
<ellipse cx="22.8576" cy="20.715" rx="13.5714" ry="13.5714" fill="#F4F4F4"/>
</g>
<path d="M28.5716 17.1432L20.2234 25.7146L16.4287 21.8185" stroke="#63DAA2" stroke-width="4" stroke-linecap="round" stroke-linejoin="round"/>
<g filter="url(#filter0_d_2098_32875)">
<path d="M10.7146 30.0002L8.75028 32.1431L7.85742 31.1691" stroke="white" stroke-linecap="round" stroke-linejoin="round" shape-rendering="crispEdges"/>
</g>
<path d="M40.6145 47.0244L39.9703 46.3802L39.3262 47.0244L39.9703 47.6686L40.6145 47.0244Z" fill="#63DAA2"/>
<path d="M49.6011 2.15796L47.4431 0L45.2852 2.15796L47.4431 4.31592L49.6011 2.15796Z" fill="#63DAA2"/>
<path d="M48.6666 9.21147L47.4427 7.98755L46.2188 9.21147L47.4427 10.4354L48.6666 9.21147Z" fill="#63DAA2"/>
<path d="M42.6438 5.34632L41.9996 4.70215L41.3555 5.34632L41.9996 5.99048L42.6438 5.34632Z" fill="#63DAA2"/>
<path d="M6.15144 1.77127L5.34624 0.966064L4.54102 1.77127L5.34624 2.57648L6.15144 1.77127Z" fill="#63DAA2"/>
<path d="M1.48159 12.0779L0.740803 11.3372L0 12.0779L0.740803 12.8187L1.48159 12.0779Z" fill="#63DAA2"/>
<path d="M49.4727 34.1085L47.7657 32.4015L46.0586 34.1085L47.7657 35.8156L49.4727 34.1085Z" fill="#63DAA2"/>
<path d="M50.9218 26.7973L50.02 25.8955L49.1182 26.7973L50.02 27.6992L50.9218 26.7973Z" fill="#63DAA2"/>
<defs>
<filter id="filter0_d_2098_32875" x="3.35742" y="27.5002" width="11.8574" height="11.1428" filterUnits="userSpaceOnUse" color-interpolation-filters="sRGB">
<feFlood flood-opacity="0" result="BackgroundImageFix"/>
<feColorMatrix in="SourceAlpha" type="matrix" values="0 0 0 0 0 0 0 0 0 0 0 0 0 0 0 0 0 0 127 0" result="hardAlpha"/>
<feOffset dy="2"/>
<feGaussianBlur stdDeviation="2"/>
<feComposite in2="hardAlpha" operator="out"/>
<feColorMatrix type="matrix" values="0 0 0 0 0.352941 0 0 0 0 0.792157 0 0 0 0 0.584314 0 0 0 1 0"/>
<feBlend mode="normal" in2="BackgroundImageFix" result="effect1_dropShadow_2098_32875"/>
<feBlend mode="normal" in="SourceGraphic" in2="effect1_dropShadow_2098_32875" result="shape"/>
</filter>
<linearGradient id="paint0_linear_2098_32875" x1="22.8683" y1="0.0653076" x2="22.8683" y2="46.7798" gradientUnits="userSpaceOnUse">
<stop stop-color="#A3FDA6"/>
<stop offset="1" stop-color="#58D89D"/>
</linearGradient>
</defs>
</svg>
